<mxfile host="65bd71144e">
    <diagram id="JCXdLLRSakVFH7HluJLd" name="Page-1">
        <mxGraphModel dx="810" dy="604" grid="1" gridSize="10" guides="1" tooltips="1" connect="1" arrows="1" fold="1" page="1" pageScale="1" pageWidth="850" pageHeight="1100" math="0" shadow="0">
            <root>
                <mxCell id="0"/>
                <mxCell id="1" parent="0"/>
                <mxCell id="2" value="Actor" style="shape=umlActor;verticalLabelPosition=bottom;verticalAlign=top;html=1;fillColor=#1ba1e2;fontColor=#ffffff;strokeColor=#006EAF;" vertex="1" parent="1">
                    <mxGeometry x="30" y="130" width="30" height="60" as="geometry"/>
                </mxCell>
                <mxCell id="3" value="" style="html=1;points=[];perimeter=orthogonalPerimeter;fillColor=#1ba1e2;fontColor=#ffffff;strokeColor=#006EAF;" vertex="1" parent="1">
                    <mxGeometry x="42.5" y="210" width="5" height="1110" as="geometry"/>
                </mxCell>
                <mxCell id="4" value="" style="endArrow=classic;html=1;" edge="1" parent="1">
                    <mxGeometry width="50" height="50" relative="1" as="geometry">
                        <mxPoint x="60" y="250" as="sourcePoint"/>
                        <mxPoint x="210" y="250" as="targetPoint"/>
                    </mxGeometry>
                </mxCell>
                <mxCell id="5" value="1: isNumeric(string):bool&amp;nbsp;" style="text;html=1;strokeColor=none;fillColor=none;align=left;verticalAlign=middle;whiteSpace=wrap;rounded=0;" vertex="1" parent="1">
                    <mxGeometry x="60" y="210" width="240" height="30" as="geometry"/>
                </mxCell>
                <mxCell id="6" value=":Controller" style="rounded=0;whiteSpace=wrap;html=1;fillColor=#1ba1e2;fontColor=#ffffff;strokeColor=#006EAF;" vertex="1" parent="1">
                    <mxGeometry x="160" y="140" width="120" height="60" as="geometry"/>
                </mxCell>
                <mxCell id="7" value="" style="endArrow=none;dashed=1;html=1;entryX=0.5;entryY=1;entryDx=0;entryDy=0;startArrow=none;" edge="1" parent="1" source="8" target="6">
                    <mxGeometry width="50" height="50" relative="1" as="geometry">
                        <mxPoint x="220" y="880" as="sourcePoint"/>
                        <mxPoint x="340" y="260" as="targetPoint"/>
                    </mxGeometry>
                </mxCell>
                <mxCell id="10" value="" style="endArrow=none;dashed=1;html=1;entryX=0.5;entryY=1;entryDx=0;entryDy=0;" edge="1" parent="1" target="8">
                    <mxGeometry width="50" height="50" relative="1" as="geometry">
                        <mxPoint x="220" y="1340.8333740234375" as="sourcePoint"/>
                        <mxPoint x="220" y="200" as="targetPoint"/>
                    </mxGeometry>
                </mxCell>
                <mxCell id="8" value="" style="html=1;points=[];perimeter=orthogonalPerimeter;fillColor=#1ba1e2;fontColor=#ffffff;strokeColor=#006EAF;" vertex="1" parent="1">
                    <mxGeometry x="217.5" y="440" width="5" height="880" as="geometry"/>
                </mxCell>
                <mxCell id="9" value="[string.charAt(i)&amp;gt;='0'&amp;amp;&amp;amp;string.charAt(i)&amp;lt;='9'&amp;amp;&amp;amp;i&amp;lt;string.length() ]" style="text;html=1;strokeColor=none;fillColor=none;align=left;verticalAlign=middle;whiteSpace=wrap;rounded=0;" vertex="1" parent="1">
                    <mxGeometry x="222.5" y="390" width="390" height="30" as="geometry"/>
                </mxCell>
                <mxCell id="12" value="alt" style="shape=umlFrame;whiteSpace=wrap;html=1;width=30;height=20;boundedLbl=1;verticalAlign=middle;align=left;spacingLeft=5;" vertex="1" parent="1">
                    <mxGeometry x="5" y="270" width="770" height="1030" as="geometry"/>
                </mxCell>
                <mxCell id="11" value="loop" style="shape=umlFrame;whiteSpace=wrap;html=1;width=40;height=20;boundedLbl=1;verticalAlign=middle;align=left;spacingLeft=5;" vertex="1" parent="1">
                    <mxGeometry x="180" y="370" width="510" height="110" as="geometry"/>
                </mxCell>
                <mxCell id="13" value="[string!=null &amp;amp;&amp;amp; string!=&quot; &quot; &amp;amp;&amp;amp; string.chatAt(0)&amp;gt;='0' &amp;amp;&amp;amp; string.charAt(0)&amp;lt;='9']" style="text;html=1;strokeColor=none;fillColor=none;align=left;verticalAlign=middle;whiteSpace=wrap;rounded=0;" vertex="1" parent="1">
                    <mxGeometry x="50" y="290" width="540" height="30" as="geometry"/>
                </mxCell>
                <mxCell id="16" value="i = 0" style="shape=note2;boundedLbl=1;whiteSpace=wrap;html=1;size=13;verticalAlign=top;align=center;fillColor=#1ba1e2;fontColor=#ffffff;strokeColor=#006EAF;" vertex="1" parent="1">
                    <mxGeometry x="260" y="320" width="60" height="40" as="geometry"/>
                </mxCell>
                <mxCell id="17" value="" style="endArrow=none;dashed=1;html=1;entryX=0;entryY=0.5;entryDx=0;entryDy=0;entryPerimeter=0;" edge="1" parent="1" target="16">
                    <mxGeometry width="50" height="50" relative="1" as="geometry">
                        <mxPoint x="220" y="340" as="sourcePoint"/>
                        <mxPoint x="270" y="300" as="targetPoint"/>
                    </mxGeometry>
                </mxCell>
                <mxCell id="19" value="parte_real+=string.charAt(i)" style="shape=note2;boundedLbl=1;whiteSpace=wrap;html=1;size=12;verticalAlign=top;align=center;fillColor=#1ba1e2;fontColor=#ffffff;strokeColor=#006EAF;" vertex="1" parent="1">
                    <mxGeometry x="260" y="420" width="150" height="50" as="geometry"/>
                </mxCell>
                <mxCell id="20" value="" style="endArrow=none;dashed=1;html=1;" edge="1" parent="1" target="19">
                    <mxGeometry width="50" height="50" relative="1" as="geometry">
                        <mxPoint x="220" y="445" as="sourcePoint"/>
                        <mxPoint x="270" y="400" as="targetPoint"/>
                    </mxGeometry>
                </mxCell>
                <mxCell id="22" value="alt" style="shape=umlFrame;whiteSpace=wrap;html=1;width=40;height=15;boundedLbl=1;verticalAlign=middle;align=left;spacingLeft=5;" vertex="1" parent="1">
                    <mxGeometry x="200" y="490" width="710" height="690" as="geometry"/>
                </mxCell>
                <mxCell id="23" value="[i&amp;lt;string.legth()&amp;amp;&amp;amp;(string.charAt(i) == '+' || string.chatAt(i) == '-')]&lt;br&gt;" style="text;html=1;strokeColor=none;fillColor=none;align=left;verticalAlign=middle;whiteSpace=wrap;rounded=0;" vertex="1" parent="1">
                    <mxGeometry x="220" y="500" width="460" height="30" as="geometry"/>
                </mxCell>
                <mxCell id="24" value="alt" style="shape=umlFrame;whiteSpace=wrap;html=1;width=32;height=20;boundedLbl=1;verticalAlign=middle;align=left;spacingLeft=5;" vertex="1" parent="1">
                    <mxGeometry x="248" y="580" width="642" height="510" as="geometry"/>
                </mxCell>
                <mxCell id="25" value="[string.chatAt(i)&amp;gt;='0' &amp;amp;&amp;amp; string.charAt(i)&amp;lt;='9' &amp;amp;&amp;amp; i&amp;lt;string.legth()-1]" style="text;html=1;strokeColor=none;fillColor=none;align=left;verticalAlign=middle;whiteSpace=wrap;rounded=0;" vertex="1" parent="1">
                    <mxGeometry x="280" y="590" width="470" height="30" as="geometry"/>
                </mxCell>
                <mxCell id="26" value="i++" style="shape=note2;boundedLbl=1;whiteSpace=wrap;html=1;size=13;verticalAlign=top;align=center;fillColor=#1ba1e2;fontColor=#ffffff;strokeColor=#006EAF;" vertex="1" parent="1">
                    <mxGeometry x="260" y="530" width="50" height="40" as="geometry"/>
                </mxCell>
                <mxCell id="27" value="" style="endArrow=none;dashed=1;html=1;entryX=0;entryY=0.5;entryDx=0;entryDy=0;entryPerimeter=0;" edge="1" parent="1" target="26">
                    <mxGeometry width="50" height="50" relative="1" as="geometry">
                        <mxPoint x="220" y="550" as="sourcePoint"/>
                        <mxPoint x="270" y="510" as="targetPoint"/>
                    </mxGeometry>
                </mxCell>
                <mxCell id="28" value="loop" style="shape=umlFrame;whiteSpace=wrap;html=1;width=37;height=20;boundedLbl=1;verticalAlign=middle;align=left;spacingLeft=5;" vertex="1" parent="1">
                    <mxGeometry x="273" y="620" width="607" height="130" as="geometry"/>
                </mxCell>
                <mxCell id="29" value="[string.chatAt(i)&amp;gt;='0' &amp;amp;&amp;amp; string.charAt(i)&amp;lt;='9' &amp;amp;&amp;amp; i&amp;lt;string.legth()-1]" style="text;html=1;strokeColor=none;fillColor=none;align=left;verticalAlign=middle;whiteSpace=wrap;rounded=0;" vertex="1" parent="1">
                    <mxGeometry x="310" y="640" width="430" height="30" as="geometry"/>
                </mxCell>
                <mxCell id="30" value="parte_imag+=string.charAt(i)" style="shape=note2;boundedLbl=1;whiteSpace=wrap;html=1;size=13;verticalAlign=top;align=center;fillColor=#1ba1e2;fontColor=#ffffff;strokeColor=#006EAF;" vertex="1" parent="1">
                    <mxGeometry x="310" y="670" width="160" height="60" as="geometry"/>
                </mxCell>
                <mxCell id="31" value="" style="endArrow=none;dashed=1;html=1;" edge="1" parent="1">
                    <mxGeometry width="50" height="50" relative="1" as="geometry">
                        <mxPoint x="270" y="700" as="sourcePoint"/>
                        <mxPoint x="310" y="700" as="targetPoint"/>
                    </mxGeometry>
                </mxCell>
                <mxCell id="32" value="alt" style="shape=umlFrame;whiteSpace=wrap;html=1;width=37;height=20;boundedLbl=1;verticalAlign=middle;align=left;spacingLeft=5;" vertex="1" parent="1">
                    <mxGeometry x="273" y="760" width="607" height="230" as="geometry"/>
                </mxCell>
                <mxCell id="33" value="[i==string.legth()&amp;amp;&amp;amp;string.charAt(i)=='j']" style="text;html=1;strokeColor=none;fillColor=none;align=left;verticalAlign=middle;whiteSpace=wrap;rounded=0;" vertex="1" parent="1">
                    <mxGeometry x="305" y="775" width="215" height="30" as="geometry"/>
                </mxCell>
                <mxCell id="34" value="es_num=true" style="shape=note2;boundedLbl=1;whiteSpace=wrap;html=1;size=16;verticalAlign=top;align=center;fillColor=#1ba1e2;fontColor=#ffffff;strokeColor=#006EAF;" vertex="1" parent="1">
                    <mxGeometry x="310" y="805" width="90" height="45" as="geometry"/>
                </mxCell>
                <mxCell id="35" value="" style="endArrow=none;dashed=1;html=1;entryX=0.111;entryY=0.556;entryDx=0;entryDy=0;entryPerimeter=0;" edge="1" parent="1" target="34">
                    <mxGeometry width="50" height="50" relative="1" as="geometry">
                        <mxPoint x="270" y="830" as="sourcePoint"/>
                        <mxPoint x="320" y="780" as="targetPoint"/>
                    </mxGeometry>
                </mxCell>
                <mxCell id="39" value="" style="endArrow=classic;html=1;exitX=-0.004;exitY=0.536;exitDx=0;exitDy=0;exitPerimeter=0;entryX=0.869;entryY=0.03;entryDx=0;entryDy=0;entryPerimeter=0;movable=1;resizable=1;rotatable=1;deletable=1;editable=1;connectable=1;" edge="1" parent="1" source="32" target="43">
                    <mxGeometry width="50" height="50" relative="1" as="geometry">
                        <mxPoint x="350" y="960" as="sourcePoint"/>
                        <mxPoint x="400" y="910" as="targetPoint"/>
                    </mxGeometry>
                </mxCell>
                <mxCell id="36" value="1.1: num_complesso =&amp;nbsp; NumeroComplesso(Double.parseDouble(parte_real),Double.parseDouble(parte_imag):NumeroComplesso" style="text;html=1;strokeColor=none;fillColor=none;align=left;verticalAlign=middle;whiteSpace=wrap;rounded=0;" vertex="1" parent="1">
                    <mxGeometry x="310" y="850" width="560" height="30" as="geometry"/>
                </mxCell>
                <mxCell id="40" value=":NumeroComplesso" style="rounded=0;whiteSpace=wrap;html=1;fillColor=#1ba1e2;fontColor=#ffffff;strokeColor=#006EAF;" vertex="1" parent="1">
                    <mxGeometry x="910" y="140" width="120" height="60" as="geometry"/>
                </mxCell>
                <mxCell id="41" value="" style="endArrow=none;dashed=1;html=1;startArrow=none;" edge="1" parent="1" source="43">
                    <mxGeometry width="50" height="50" relative="1" as="geometry">
                        <mxPoint x="970" y="1338.333251953125" as="sourcePoint"/>
                        <mxPoint x="970" y="200" as="targetPoint"/>
                    </mxGeometry>
                </mxCell>
                <mxCell id="42" value="" style="endArrow=none;dashed=1;html=1;" edge="1" parent="1" target="43">
                    <mxGeometry width="50" height="50" relative="1" as="geometry">
                        <mxPoint x="970" y="1338.333251953125" as="sourcePoint"/>
                        <mxPoint x="970" y="200" as="targetPoint"/>
                    </mxGeometry>
                </mxCell>
                <mxCell id="43" value="" style="html=1;points=[];perimeter=orthogonalPerimeter;fillColor=#1ba1e2;fontColor=#ffffff;strokeColor=#006EAF;" vertex="1" parent="1">
                    <mxGeometry x="965.5" y="870" width="5" height="450" as="geometry"/>
                </mxCell>
                <mxCell id="46" value="1.2: add(num_complesso)&amp;nbsp;" style="text;html=1;strokeColor=none;fillColor=none;align=left;verticalAlign=middle;whiteSpace=wrap;rounded=0;" vertex="1" parent="1">
                    <mxGeometry x="310" y="890" width="550" height="30" as="geometry"/>
                </mxCell>
                <mxCell id="47" value="stack : CalcStack" style="rounded=0;whiteSpace=wrap;html=1;fillColor=#1ba1e2;fontColor=#ffffff;strokeColor=#006EAF;" vertex="1" parent="1">
                    <mxGeometry x="1040" y="140" width="120" height="60" as="geometry"/>
                </mxCell>
                <mxCell id="48" value="" style="endArrow=none;dashed=1;html=1;startArrow=none;" edge="1" parent="1" source="53">
                    <mxGeometry width="50" height="50" relative="1" as="geometry">
                        <mxPoint x="1100" y="1340.8333740234375" as="sourcePoint"/>
                        <mxPoint x="1100" y="200" as="targetPoint"/>
                    </mxGeometry>
                </mxCell>
                <mxCell id="52" value="" style="endArrow=none;dashed=1;html=1;" edge="1" parent="1" target="53">
                    <mxGeometry width="50" height="50" relative="1" as="geometry">
                        <mxPoint x="1100" y="1340.8333740234375" as="sourcePoint"/>
                        <mxPoint x="1100" y="200" as="targetPoint"/>
                    </mxGeometry>
                </mxCell>
                <mxCell id="53" value="" style="html=1;points=[];perimeter=orthogonalPerimeter;fillColor=#1ba1e2;fontColor=#ffffff;strokeColor=#006EAF;" vertex="1" parent="1">
                    <mxGeometry x="1097.5" y="880" width="5" height="440" as="geometry"/>
                </mxCell>
                <mxCell id="54" value="" style="endArrow=classic;html=1;entryX=1.302;entryY=0.102;entryDx=0;entryDy=0;entryPerimeter=0;exitX=-0.005;exitY=0.714;exitDx=0;exitDy=0;exitPerimeter=0;movable=1;resizable=1;rotatable=1;deletable=1;editable=1;connectable=1;" edge="1" parent="1" source="32" target="53">
                    <mxGeometry width="50" height="50" relative="1" as="geometry">
                        <mxPoint x="320" y="930" as="sourcePoint"/>
                        <mxPoint x="370" y="880" as="targetPoint"/>
                    </mxGeometry>
                </mxCell>
                <mxCell id="57" value="" style="endArrow=none;dashed=1;html=1;entryX=1.006;entryY=0.939;entryDx=0;entryDy=0;entryPerimeter=0;" edge="1" parent="1" target="12">
                    <mxGeometry width="50" height="50" relative="1" as="geometry">
                        <mxPoint x="10" y="1240" as="sourcePoint"/>
                        <mxPoint x="60" y="1190" as="targetPoint"/>
                    </mxGeometry>
                </mxCell>
                <mxCell id="61" value="1.4: es_num = false" style="endArrow=open;startArrow=none;endFill=0;startFill=0;endSize=8;html=1;verticalAlign=bottom;dashed=1;labelBackgroundColor=none;" edge="1" parent="1">
                    <mxGeometry width="160" relative="1" as="geometry">
                        <mxPoint x="217.5" y="1290" as="sourcePoint"/>
                        <mxPoint x="57.5" y="1290" as="targetPoint"/>
                    </mxGeometry>
                </mxCell>
                <mxCell id="62" value="1.3: es_num" style="endArrow=open;startArrow=none;endFill=0;startFill=0;endSize=8;html=1;verticalAlign=bottom;dashed=1;labelBackgroundColor=none;" edge="1" parent="1">
                    <mxGeometry width="160" relative="1" as="geometry">
                        <mxPoint x="220" y="1220" as="sourcePoint"/>
                        <mxPoint x="60" y="1220" as="targetPoint"/>
                    </mxGeometry>
                </mxCell>
                <mxCell id="63" value="" style="endArrow=none;dashed=1;html=1;entryX=1.002;entryY=0.885;entryDx=0;entryDy=0;entryPerimeter=0;exitX=-0.001;exitY=0.883;exitDx=0;exitDy=0;exitPerimeter=0;" edge="1" parent="1" source="22" target="22">
                    <mxGeometry width="50" height="50" relative="1" as="geometry">
                        <mxPoint x="200" y="1120" as="sourcePoint"/>
                        <mxPoint x="250" y="1070" as="targetPoint"/>
                    </mxGeometry>
                </mxCell>
                <mxCell id="64" value="es_num = false" style="shape=note2;boundedLbl=1;whiteSpace=wrap;html=1;size=13;verticalAlign=top;align=center;fillColor=#1ba1e2;fontColor=#ffffff;strokeColor=#006EAF;" vertex="1" parent="1">
                    <mxGeometry x="280" y="1110" width="100" height="50" as="geometry"/>
                </mxCell>
                <mxCell id="65" value="" style="endArrow=none;dashed=1;html=1;entryX=0;entryY=0.5;entryDx=0;entryDy=0;entryPerimeter=0;exitX=0.001;exitY=0.936;exitDx=0;exitDy=0;exitPerimeter=0;" edge="1" parent="1" source="22" target="64">
                    <mxGeometry width="50" height="50" relative="1" as="geometry">
                        <mxPoint x="200" y="1150" as="sourcePoint"/>
                        <mxPoint x="250" y="1100" as="targetPoint"/>
                    </mxGeometry>
                </mxCell>
                <mxCell id="66" value="" style="endArrow=none;dashed=1;html=1;entryX=0.998;entryY=0.84;entryDx=0;entryDy=0;entryPerimeter=0;" edge="1" parent="1" target="24">
                    <mxGeometry width="50" height="50" relative="1" as="geometry">
                        <mxPoint x="250" y="1010" as="sourcePoint"/>
                        <mxPoint x="300" y="960" as="targetPoint"/>
                    </mxGeometry>
                </mxCell>
                <mxCell id="67" value="es_num = false" style="shape=note2;boundedLbl=1;whiteSpace=wrap;html=1;size=13;verticalAlign=top;align=center;fillColor=#1ba1e2;fontColor=#ffffff;strokeColor=#006EAF;" vertex="1" parent="1">
                    <mxGeometry x="310" y="1030" width="100" height="40" as="geometry"/>
                </mxCell>
                <mxCell id="68" value="" style="endArrow=none;dashed=1;html=1;exitX=0.002;exitY=0.926;exitDx=0;exitDy=0;exitPerimeter=0;" edge="1" parent="1" source="24" target="67">
                    <mxGeometry width="50" height="50" relative="1" as="geometry">
                        <mxPoint x="250" y="1060" as="sourcePoint"/>
                        <mxPoint x="300" y="1010" as="targetPoint"/>
                    </mxGeometry>
                </mxCell>
                <mxCell id="69" value="es_num = false" style="shape=note2;boundedLbl=1;whiteSpace=wrap;html=1;size=14;verticalAlign=top;align=center;fillColor=#1ba1e2;fontColor=#ffffff;strokeColor=#006EAF;" vertex="1" parent="1">
                    <mxGeometry x="340" y="940" width="100" height="40" as="geometry"/>
                </mxCell>
                <mxCell id="70" value="" style="endArrow=none;dashed=1;html=1;entryX=0;entryY=0.5;entryDx=0;entryDy=0;entryPerimeter=0;" edge="1" parent="1" target="69">
                    <mxGeometry width="50" height="50" relative="1" as="geometry">
                        <mxPoint x="270" y="960" as="sourcePoint"/>
                        <mxPoint x="320" y="920" as="targetPoint"/>
                    </mxGeometry>
                </mxCell>
            </root>
        </mxGraphModel>
    </diagram>
</mxfile>